<?xml version="1.0" encoding="UTF-8" standalone="no"?><!DOCTYPE svg PUBLIC "-//W3C//DTD SVG 1.1//EN" "http://www.w3.org/Graphics/SVG/1.1/DTD/svg11.dtd"><svg width="100%" height="100%" viewBox="0 0 834 167" version="1.1" xmlns="http://www.w3.org/2000/svg" xmlns:xlink="http://www.w3.org/1999/xlink" xml:space="preserve" xmlns:serif="http://www.serif.com/" style="fill-rule:evenodd;clip-rule:evenodd;stroke-linejoin:round;stroke-miterlimit:2;"><path d="M301.55,69.073c0,-14.205 -9.632,-28.052 -30.342,-28.052l-53.574,0l0,84.274l18.063,-0l-0,-69.107l32.871,-0c10.117,-0 14.928,4.939 14.928,12.884c0,8.065 -4.82,13.004 -14.928,13.004l-13.983,0c-6.336,0 -9.896,3.56 -9.896,9.896l0,5.28l10.032,-0c4.692,-0 8.184,1.567 11.079,5.296l17.815,22.755l22.15,-0l-24.798,-31.543c13.242,-3.023 20.583,-11.692 20.583,-24.688Z" style="fill:#fff;fill-rule:nonzero;"/><rect x="348.422" y="41.013" width="18.062" height="84.273" style="fill:#fff;fill-rule:nonzero;"/><path d="M505.675,41.013l-19.262,-0l-30.58,65.257l-30.583,-65.257l-19.261,-0l40.211,84.281l19.263,0l40.212,-84.281Z" style="fill:#fff;fill-rule:nonzero;"/><rect x="545.504" y="41.013" width="18.063" height="84.273" style="fill:#fff;fill-rule:nonzero;"/><path d="M663.746,41.013l-19.263,-0l-41.412,84.273l19.262,-0l5.18,-10.832c2.162,-4.574 5.537,-6.626 10.595,-6.626l31.305,0l-3.734,-7.945c-2.287,-4.939 -6.021,-7.222 -11.554,-7.222l-16.008,0l16.008,-33.229l31.779,65.854l19.267,-0l-41.425,-84.273Z" style="fill:#fff;fill-rule:nonzero;"/><path d="M833.333,41.013l-17.458,-0l0,62.608l-50.446,-62.608l-20.704,-0l0,84.281l17.458,0l0,-62.609l50.438,62.609l20.712,0l0,-84.281Z" style="fill:#fff;fill-rule:nonzero;"/><path d="M171.156,76.711c-9.699,-10.006 -62.174,-64.133 -72.01,-71.942c-3.432,-2.751 -7.852,-4.769 -13.396,-4.769c-5.552,0 -9.972,2.018 -13.395,4.769c-9.836,7.809 -62.32,61.936 -72.019,71.942c-0.792,0.912 -0.077,2.342 1.115,2.342c4.846,-0 16.079,0.017 22.849,0.017c2.384,0 3.091,-0.417 4.59,-2.027c1.499,-1.609 8.958,-9.614 8.958,-9.614c9.487,-10.228 32.625,-32.812 41.081,-39.931c3.176,-2.674 6.77,-2.589 6.821,-2.589c0.051,0 3.645,-0.085 6.822,2.589c8.456,7.128 31.593,29.712 41.08,39.931c0,-0 7.46,8.005 8.959,9.614c1.499,1.61 2.206,2.027 4.59,2.027c6.762,0 18.003,-0.017 22.848,-0.017c1.192,0.009 1.899,-1.43 1.107,-2.342Z" style="fill:#fff;fill-rule:nonzero;"/><path d="M0.334,89.595c9.7,10.007 62.175,64.134 72.011,71.943c3.432,2.75 7.851,4.769 13.395,4.769c5.553,-0 9.972,-2.019 13.396,-4.77c9.836,-7.808 62.31,-61.935 72.01,-71.942c0.792,-0.911 0.077,-2.341 -1.116,-2.341c-4.845,-0 -16.077,-0.017 -22.847,-0.017c-2.385,-0 -3.092,0.417 -4.591,2.026c-1.499,1.61 -8.958,9.615 -8.958,9.615c-9.487,10.227 -32.625,32.812 -41.081,39.931c-3.176,2.674 -6.77,2.589 -6.821,2.589c-0.052,-0 -3.645,0.085 -6.822,-2.589c-8.456,-7.128 -31.593,-29.712 -41.08,-39.931c-0,-0 -7.46,-8.005 -8.959,-9.615c-1.499,-1.609 -2.206,-2.026 -4.59,-2.026c-6.762,-0 -18.003,0.017 -22.848,0.017c-1.175,-0 -1.891,1.43 -1.099,2.341Z" style="fill:#fff;fill-rule:nonzero;"/><path d="M79.404,101.05c-4.326,-3.952 -11.947,-11.344 -14.783,-14.656c-1.295,-1.465 -1.21,-3.296 -1.21,-3.296c0,-0 -0.085,-1.831 1.21,-3.295c2.836,-3.313 10.457,-10.705 14.783,-14.656c1.771,-1.652 2.197,-2.692 2.197,-4.718l0,-22.474c0,-0.902 -1.056,-1.464 -1.873,-0.706c-9.648,8.933 -31.143,30.231 -38.347,38.483c-3.449,3.653 -3.125,7.375 -3.125,7.375c-0,-0 -0.316,3.713 3.125,7.374c7.213,8.252 28.707,29.551 38.347,38.484c0.86,0.749 1.873,0.281 1.873,-0.784l0,-22.405c0,-2.044 -0.426,-3.083 -2.197,-4.726Z" style="fill:#fff;fill-rule:nonzero;"/><path d="M92.093,101.067c4.326,-3.952 11.948,-11.343 14.784,-14.656c1.294,-1.465 1.209,-3.296 1.209,-3.296c-0,0 0.085,-1.831 -1.209,-3.295c-2.836,-3.313 -10.458,-10.705 -14.784,-14.656c-1.771,-1.652 -2.197,-2.691 -2.197,-4.718l-0,-22.405c-0,-1.065 1.013,-1.533 1.874,-0.784c9.648,8.933 31.142,30.232 38.346,38.483c3.441,3.654 3.126,7.375 3.126,7.375c-0,0 0.315,3.713 -3.126,7.375c-7.213,8.252 -28.707,29.55 -38.346,38.483c-0.861,0.75 -1.874,0.281 -1.874,-0.783l-0,-22.405c0.009,-2.036 0.426,-3.066 2.197,-4.718Z" style="fill:#fff;fill-rule:nonzero;"/></svg>